<svg width="33" height="30" viewBox="0 0 33 30" fill="none" xmlns="http://www.w3.org/2000/svg">
<path d="M29.4045 17C29.4045 22.4467 24.7813 27 18.9045 27C13.0278 27 8.40454 22.4467 8.40454 17C8.40454 11.5533 13.0278 7 18.9045 7C24.7813 7 29.4045 11.5533 29.4045 17Z" fill="#D11F3F" stroke="#002140" stroke-width="4"/>
<path d="M31.9045 17C31.9045 23.8859 26.1022 29.5 18.9045 29.5C11.7069 29.5 5.90454 23.8859 5.90454 17C5.90454 10.1141 11.7069 4.5 18.9045 4.5C26.1022 4.5 31.9045 10.1141 31.9045 17Z" stroke="#D11F3F"/>
<path d="M15.079 21.234L2.71555 27.5185L10.5213 17.662L10.8343 17.2667L10.4364 16.957L6.79768 14.1251C6.75436 14.0832 6.70354 14.041 6.66206 14.007C6.59637 13.9533 6.51244 13.8874 6.415 13.8122C6.21969 13.6617 5.95913 13.4659 5.6586 13.2413C5.51495 13.134 5.36188 13.0199 5.20182 12.9005C4.68973 12.5187 4.10595 12.0835 3.52932 11.6457C2.77139 11.0703 2.03482 10.4972 1.49783 10.0425C1.41653 9.97366 1.34084 9.90839 1.2711 9.84697C1.2886 9.84691 1.30638 9.84689 1.32443 9.84691C1.88864 9.84769 2.63931 9.88971 3.39785 9.9467C4.1537 10.0035 4.9067 10.0743 5.47146 10.131C5.75364 10.1594 5.9884 10.1841 6.15247 10.2018C6.23449 10.2106 6.29883 10.2177 6.34256 10.2225L6.39234 10.2281L6.40496 10.2295L6.40808 10.2299L6.40872 10.2299L6.40883 10.2299L6.409 10.23L12.0129 10.8679L12.4251 10.9148L12.5473 10.5184L14.1961 5.16826C14.2336 5.07274 14.2736 4.93205 14.3115 4.79308C14.358 4.62217 14.4137 4.40445 14.4755 4.16005C14.5011 4.0589 14.5278 3.95291 14.5554 3.84317C14.6621 3.41925 14.7829 2.93945 14.9085 2.46746C15.0433 1.96108 15.1807 1.47472 15.3089 1.0852C15.4401 1.47528 15.5814 1.96288 15.7199 2.47047C15.854 2.96186 15.9828 3.46207 16.0952 3.89841C16.1186 3.98946 16.1413 4.07772 16.1632 4.16254C16.2264 4.40682 16.2831 4.62421 16.3301 4.79468C16.3685 4.93388 16.4083 5.07228 16.4443 5.16545L18.056 10.5153L18.1458 10.8134L18.4529 10.8643L23.4411 11.6922C23.4413 11.6923 23.4415 11.6923 23.4417 11.6924C23.6016 11.7194 23.8371 11.791 24.0375 11.8983C24.2605 12.0177 24.3223 12.1168 24.3294 12.1409C24.3318 12.149 24.3426 12.2341 24.2132 12.4411C24.0971 12.6269 23.9334 12.8089 23.7792 12.9803L23.7706 12.9899L23.7704 12.9901L20.1524 17.0174L19.9501 17.2426L20.0558 17.5262L22.1464 23.1361C22.1695 23.2402 22.2101 23.3517 22.2437 23.4404C22.2782 23.5317 22.3209 23.6379 22.3652 23.7477C22.3791 23.7824 22.3932 23.8174 22.4072 23.8524C22.5287 24.1557 22.6575 24.49 22.7389 24.802C22.826 25.1356 22.8316 25.3473 22.8001 25.4482C22.7948 25.4651 22.7902 25.4726 22.789 25.4744C22.7858 25.4765 22.7463 25.5 22.6293 25.5H22.4508L22.4459 25.5041C22.4092 25.49 22.3628 25.4701 22.3063 25.4428C22.0828 25.3348 21.7935 25.1571 21.484 24.9507C21.1783 24.7469 20.87 24.5265 20.6103 24.3399C20.5857 24.3222 20.5611 24.3045 20.5369 24.2871C20.321 24.1318 20.1235 23.9897 20.0168 23.9262C20.0164 23.926 20.0161 23.9258 20.0157 23.9255L15.563 21.2511L15.3257 21.1085L15.079 21.234ZM22.5477 25.5335C22.5479 25.5339 22.5435 25.5336 22.5334 25.5316C22.5424 25.5321 22.5474 25.5331 22.5477 25.5335Z" fill="#F6F6F6" stroke="#F66985"/>
</svg>
