<svg width="190" height="48" viewBox="0 0 190 48" fill="none" xmlns="http://www.w3.org/2000/svg">
<g filter="url(#filter0_d_7_2129)">
<path d="M18.584 23.48C19.8853 23.7573 20.9307 24.408 21.72 25.432C22.5093 26.4347 22.904 27.5867 22.904 28.888C22.904 30.7653 22.2427 32.2587 20.92 33.368C19.6187 34.456 17.7947 35 15.448 35H4.984V12.536H15.096C17.3787 12.536 19.16 13.0587 20.44 14.104C21.7413 15.1493 22.392 16.568 22.392 18.36C22.392 19.6827 22.04 20.7813 21.336 21.656C20.6533 22.5307 19.736 23.1387 18.584 23.48ZM10.456 21.624H14.04C14.936 21.624 15.6187 21.432 16.088 21.048C16.5787 20.6427 16.824 20.056 16.824 19.288C16.824 18.52 16.5787 17.9333 16.088 17.528C15.6187 17.1227 14.936 16.92 14.04 16.92H10.456V21.624ZM14.488 30.584C15.4053 30.584 16.1093 30.3813 16.6 29.976C17.112 29.5493 17.368 28.9413 17.368 28.152C17.368 27.3627 17.1013 26.744 16.568 26.296C16.056 25.848 15.3413 25.624 14.424 25.624H10.456V30.584H14.488ZM24.9898 26.04C24.9898 24.2053 25.3311 22.5947 26.0138 21.208C26.7178 19.8213 27.6671 18.7547 28.8618 18.008C30.0564 17.2613 31.3898 16.888 32.8618 16.888C34.1204 16.888 35.2191 17.144 36.1578 17.656C37.1178 18.168 37.8538 18.84 38.3658 19.672V17.144H43.8378V35H38.3658V32.472C37.8324 33.304 37.0858 33.976 36.1258 34.488C35.1871 35 34.0884 35.256 32.8298 35.256C31.3791 35.256 30.0564 34.8827 28.8618 34.136C27.6671 33.368 26.7178 32.2907 26.0138 30.904C25.3311 29.496 24.9898 27.8747 24.9898 26.04ZM38.3658 26.072C38.3658 24.7067 37.9818 23.6293 37.2138 22.84C36.4671 22.0507 35.5498 21.656 34.4618 21.656C33.3738 21.656 32.4458 22.0507 31.6778 22.84C30.9311 23.608 30.5578 24.6747 30.5578 26.04C30.5578 27.4053 30.9311 28.4933 31.6778 29.304C32.4458 30.0933 33.3738 30.488 34.4618 30.488C35.5498 30.488 36.4671 30.0933 37.2138 29.304C37.9818 28.5147 38.3658 27.4373 38.3658 26.072ZM58.7085 35L53.2685 27.512V35H47.7965V11.32H53.2685V24.408L58.6765 17.144H65.4285L58.0045 26.104L65.4925 35H58.7085ZM66.4898 26.04C66.4898 24.2053 66.8311 22.5947 67.5138 21.208C68.2178 19.8213 69.1671 18.7547 70.3618 18.008C71.5564 17.2613 72.8898 16.888 74.3618 16.888C75.6204 16.888 76.7191 17.144 77.6578 17.656C78.6178 18.168 79.3538 18.84 79.8658 19.672V17.144H85.3378V35H79.8658V32.472C79.3324 33.304 78.5858 33.976 77.6258 34.488C76.6871 35 75.5884 35.256 74.3298 35.256C72.8791 35.256 71.5564 34.8827 70.3618 34.136C69.1671 33.368 68.2178 32.2907 67.5138 30.904C66.8311 29.496 66.4898 27.8747 66.4898 26.04ZM79.8658 26.072C79.8658 24.7067 79.4818 23.6293 78.7138 22.84C77.9671 22.0507 77.0498 21.656 75.9618 21.656C74.8738 21.656 73.9458 22.0507 73.1778 22.84C72.4311 23.608 72.0578 24.6747 72.0578 26.04C72.0578 27.4053 72.4311 28.4933 73.1778 29.304C73.9458 30.0933 74.8738 30.488 75.9618 30.488C77.0498 30.488 77.9671 30.0933 78.7138 29.304C79.4818 28.5147 79.8658 27.4373 79.8658 26.072ZM99.2485 30.36V35H96.4645C94.4805 35 92.9338 34.52 91.8245 33.56C90.7152 32.5787 90.1605 30.9893 90.1605 28.792V21.688H87.9845V17.144H90.1605V12.792H95.6325V17.144H99.2165V21.688H95.6325V28.856C95.6325 29.3893 95.7605 29.7733 96.0165 30.008C96.2725 30.2427 96.6992 30.36 97.2965 30.36H99.2485Z" fill="#002140"/>
<path d="M116.281 31.032H107.897L106.553 35H100.825L108.953 12.536H115.289L123.417 35H117.625L116.281 31.032ZM114.873 26.808L112.089 18.584L109.337 26.808H114.873ZM136.77 16.952C138.861 16.952 140.525 17.6347 141.762 19C143.021 20.344 143.65 22.2 143.65 24.568V35H138.21V25.304C138.21 24.1093 137.901 23.1813 137.282 22.52C136.664 21.8587 135.832 21.528 134.786 21.528C133.741 21.528 132.909 21.8587 132.29 22.52C131.672 23.1813 131.362 24.1093 131.362 25.304V35H125.89V17.144H131.362V19.512C131.917 18.7227 132.664 18.104 133.602 17.656C134.541 17.1867 135.597 16.952 136.77 16.952ZM178.709 35L173.269 27.512V35H167.797V11.32H173.269V24.408L178.677 17.144H185.429L178.005 26.104L185.493 35H178.709Z" fill="#DD2C5B"/>
</g>
<defs>
<filter id="filter0_d_7_2129" x="0.984009" y="11.3199" width="188.509" height="31.936" filterUnits="userSpaceOnUse" color-interpolation-filters="sRGB">
<feFlood flood-opacity="0" result="BackgroundImageFix"/>
<feColorMatrix in="SourceAlpha" type="matrix" values="0 0 0 0 0 0 0 0 0 0 0 0 0 0 0 0 0 0 127 0" result="hardAlpha"/>
<feOffset dy="4"/>
<feGaussianBlur stdDeviation="2"/>
<feComposite in2="hardAlpha" operator="out"/>
<feColorMatrix type="matrix" values="0 0 0 0 0 0 0 0 0 0 0 0 0 0 0 0 0 0 0.25 0"/>
<feBlend mode="normal" in2="BackgroundImageFix" result="effect1_dropShadow_7_2129"/>
<feBlend mode="normal" in="SourceGraphic" in2="effect1_dropShadow_7_2129" result="shape"/>
</filter>
</defs>
</svg>
