<svg width="259" height="200" viewBox="0 0 259 200" fill="none" xmlns="http://www.w3.org/2000/svg">
<rect x="0.129761" y="0.560181" width="6.8884" height="5.43324" rx="1.34409" fill="#DD2C5B" fill-opacity="0.35"/>
<rect x="28.0182" y="0.560181" width="6.8884" height="5.43324" rx="1.34409" fill="#DD2C5B" fill-opacity="0.35"/>
<rect x="55.9066" y="0.560181" width="6.8884" height="5.43324" rx="1.34409" fill="#DD2C5B" fill-opacity="0.35"/>
<rect x="83.795" y="0.560181" width="6.8884" height="5.43324" rx="1.34409" fill="#DD2C5B" fill-opacity="0.35"/>
<rect x="111.683" y="0.560181" width="6.8884" height="5.43324" rx="1.34409" fill="#DD2C5B" fill-opacity="0.35"/>
<rect x="139.572" y="0.560181" width="6.8884" height="5.43324" rx="1.34409" fill="#DD2C5B" fill-opacity="0.35"/>
<rect x="167.46" y="0.560181" width="6.8884" height="5.43324" rx="1.34409" fill="#DD2C5B" fill-opacity="0.35"/>
<rect x="195.349" y="0.560181" width="6.8884" height="5.43324" rx="1.34409" fill="#DD2C5B" fill-opacity="0.35"/>
<rect x="223.237" y="0.560181" width="6.8884" height="5.43324" rx="1.34409" fill="#DD2C5B" fill-opacity="0.35"/>
<rect x="251.126" y="0.560181" width="6.8884" height="5.43324" rx="1.34409" fill="#DD2C5B" fill-opacity="0.35"/>
<rect x="0.129761" y="22.2931" width="6.8884" height="5.43324" rx="1.34409" fill="#DD2C5B" fill-opacity="0.35"/>
<rect x="28.0182" y="22.2931" width="6.8884" height="5.43324" rx="1.34409" fill="#DD2C5B" fill-opacity="0.35"/>
<rect x="55.9066" y="22.2931" width="6.8884" height="5.43324" rx="1.34409" fill="#DD2C5B" fill-opacity="0.35"/>
<rect x="83.795" y="22.2931" width="6.8884" height="5.43324" rx="1.34409" fill="#DD2C5B" fill-opacity="0.35"/>
<rect x="111.683" y="22.2931" width="6.8884" height="5.43324" rx="1.34409" fill="#DD2C5B" fill-opacity="0.35"/>
<rect x="139.572" y="22.2931" width="6.8884" height="5.43324" rx="1.34409" fill="#DD2C5B" fill-opacity="0.35"/>
<rect x="167.46" y="22.2931" width="6.8884" height="5.43324" rx="1.34409" fill="#DD2C5B" fill-opacity="0.35"/>
<rect x="195.349" y="22.2931" width="6.8884" height="5.43324" rx="1.34409" fill="#DD2C5B" fill-opacity="0.35"/>
<rect x="223.237" y="22.2931" width="6.8884" height="5.43324" rx="1.34409" fill="#DD2C5B" fill-opacity="0.35"/>
<rect x="251.126" y="22.2931" width="6.8884" height="5.43324" rx="1.34409" fill="#DD2C5B" fill-opacity="0.35"/>
<rect x="0.129761" y="44.026" width="6.8884" height="5.43324" rx="1.34409" fill="#DD2C5B" fill-opacity="0.35"/>
<rect x="28.0182" y="44.026" width="6.8884" height="5.43324" rx="1.34409" fill="#DD2C5B" fill-opacity="0.35"/>
<rect x="55.9066" y="44.026" width="6.8884" height="5.43324" rx="1.34409" fill="#DD2C5B" fill-opacity="0.35"/>
<rect x="83.795" y="44.026" width="6.8884" height="5.43324" rx="1.34409" fill="#DD2C5B" fill-opacity="0.35"/>
<rect x="111.683" y="44.026" width="6.8884" height="5.43324" rx="1.34409" fill="#DD2C5B" fill-opacity="0.35"/>
<rect x="139.572" y="44.026" width="6.8884" height="5.43324" rx="1.34409" fill="#DD2C5B" fill-opacity="0.35"/>
<rect x="167.46" y="44.026" width="6.8884" height="5.43324" rx="1.34409" fill="#DD2C5B" fill-opacity="0.35"/>
<rect x="195.349" y="44.026" width="6.8884" height="5.43324" rx="1.34409" fill="#DD2C5B" fill-opacity="0.35"/>
<rect x="223.237" y="44.026" width="6.8884" height="5.43324" rx="1.34409" fill="#DD2C5B" fill-opacity="0.35"/>
<rect x="251.126" y="44.026" width="6.8884" height="5.43324" rx="1.34409" fill="#DD2C5B" fill-opacity="0.35"/>
<rect x="0.129761" y="65.7588" width="6.8884" height="5.43324" rx="1.34409" fill="#DD2C5B" fill-opacity="0.35"/>
<rect x="28.0182" y="65.7588" width="6.8884" height="5.43324" rx="1.34409" fill="#DD2C5B" fill-opacity="0.35"/>
<rect x="55.9066" y="65.7588" width="6.8884" height="5.43324" rx="1.34409" fill="#DD2C5B" fill-opacity="0.35"/>
<rect x="83.795" y="65.7588" width="6.8884" height="5.43324" rx="1.34409" fill="#DD2C5B" fill-opacity="0.35"/>
<rect x="111.683" y="65.7588" width="6.8884" height="5.43324" rx="1.34409" fill="#DD2C5B" fill-opacity="0.35"/>
<rect x="139.572" y="65.7588" width="6.8884" height="5.43324" rx="1.34409" fill="#DD2C5B" fill-opacity="0.35"/>
<rect x="167.46" y="65.7588" width="6.8884" height="5.43324" rx="1.34409" fill="#DD2C5B" fill-opacity="0.35"/>
<rect x="195.349" y="65.7588" width="6.8884" height="5.43324" rx="1.34409" fill="#DD2C5B" fill-opacity="0.35"/>
<rect x="223.237" y="65.7588" width="6.8884" height="5.43324" rx="1.34409" fill="#DD2C5B" fill-opacity="0.35"/>
<rect x="251.126" y="65.7588" width="6.8884" height="5.43324" rx="1.34409" fill="#DD2C5B" fill-opacity="0.35"/>
<rect x="0.129761" y="87.4922" width="6.8884" height="5.43324" rx="1.34409" fill="#DD2C5B" fill-opacity="0.35"/>
<rect x="28.0182" y="87.4922" width="6.8884" height="5.43324" rx="1.34409" fill="#DD2C5B" fill-opacity="0.35"/>
<rect x="55.9066" y="87.4922" width="6.8884" height="5.43324" rx="1.34409" fill="#DD2C5B" fill-opacity="0.35"/>
<rect x="83.795" y="87.4922" width="6.8884" height="5.43324" rx="1.34409" fill="#DD2C5B" fill-opacity="0.35"/>
<rect x="111.683" y="87.4922" width="6.8884" height="5.43324" rx="1.34409" fill="#DD2C5B" fill-opacity="0.35"/>
<rect x="139.572" y="87.4922" width="6.8884" height="5.43324" rx="1.34409" fill="#DD2C5B" fill-opacity="0.35"/>
<rect x="167.46" y="87.4922" width="6.8884" height="5.43324" rx="1.34409" fill="#DD2C5B" fill-opacity="0.35"/>
<rect x="195.349" y="87.4922" width="6.8884" height="5.43324" rx="1.34409" fill="#DD2C5B" fill-opacity="0.35"/>
<rect x="223.237" y="87.4922" width="6.8884" height="5.43324" rx="1.34409" fill="#DD2C5B" fill-opacity="0.35"/>
<rect x="251.126" y="87.4922" width="6.8884" height="5.43324" rx="1.34409" fill="#DD2C5B" fill-opacity="0.35"/>
<rect x="0.129761" y="109.225" width="6.8884" height="5.43324" rx="1.34409" fill="#DD2C5B" fill-opacity="0.35"/>
<rect x="28.0182" y="109.225" width="6.8884" height="5.43324" rx="1.34409" fill="#DD2C5B" fill-opacity="0.35"/>
<rect x="55.9066" y="109.225" width="6.8884" height="5.43324" rx="1.34409" fill="#DD2C5B" fill-opacity="0.35"/>
<rect x="83.795" y="109.225" width="6.8884" height="5.43324" rx="1.34409" fill="#DD2C5B" fill-opacity="0.35"/>
<rect x="111.683" y="109.225" width="6.8884" height="5.43324" rx="1.34409" fill="#DD2C5B" fill-opacity="0.35"/>
<rect x="139.572" y="109.225" width="6.8884" height="5.43324" rx="1.34409" fill="#DD2C5B" fill-opacity="0.35"/>
<rect x="167.46" y="109.225" width="6.8884" height="5.43324" rx="1.34409" fill="#DD2C5B" fill-opacity="0.35"/>
<rect x="195.349" y="109.225" width="6.8884" height="5.43324" rx="1.34409" fill="#DD2C5B" fill-opacity="0.35"/>
<rect x="223.237" y="109.225" width="6.8884" height="5.43324" rx="1.34409" fill="#DD2C5B" fill-opacity="0.35"/>
<rect x="251.126" y="109.225" width="6.8884" height="5.43324" rx="1.34409" fill="#DD2C5B" fill-opacity="0.35"/>
<rect x="0.129761" y="130.958" width="6.8884" height="5.43324" rx="1.34409" fill="#DD2C5B" fill-opacity="0.35"/>
<rect x="0.129761" y="151.919" width="6.8884" height="5.43324" rx="1.34409" fill="#DD2C5B" fill-opacity="0.35"/>
<rect x="0.129761" y="172.879" width="6.8884" height="5.43324" rx="1.34409" fill="#DD2C5B" fill-opacity="0.35"/>
<rect x="0.129761" y="193.84" width="6.8884" height="5.43324" rx="1.34409" fill="#DD2C5B" fill-opacity="0.35"/>
<rect x="28.0182" y="130.958" width="6.8884" height="5.43324" rx="1.34409" fill="#DD2C5B" fill-opacity="0.35"/>
<rect x="28.0182" y="151.919" width="6.8884" height="5.43324" rx="1.34409" fill="#DD2C5B" fill-opacity="0.35"/>
<rect x="28.0182" y="172.879" width="6.8884" height="5.43324" rx="1.34409" fill="#DD2C5B" fill-opacity="0.35"/>
<rect x="28.0182" y="193.84" width="6.8884" height="5.43324" rx="1.34409" fill="#DD2C5B" fill-opacity="0.35"/>
<rect x="55.9066" y="130.958" width="6.8884" height="5.43324" rx="1.34409" fill="#DD2C5B" fill-opacity="0.35"/>
<rect x="55.9066" y="151.919" width="6.8884" height="5.43324" rx="1.34409" fill="#DD2C5B" fill-opacity="0.35"/>
<rect x="55.9066" y="172.879" width="6.8884" height="5.43324" rx="1.34409" fill="#DD2C5B" fill-opacity="0.35"/>
<rect x="55.9066" y="193.84" width="6.8884" height="5.43324" rx="1.34409" fill="#DD2C5B" fill-opacity="0.35"/>
<rect x="83.795" y="130.958" width="6.8884" height="5.43324" rx="1.34409" fill="#DD2C5B" fill-opacity="0.35"/>
<rect x="83.795" y="151.919" width="6.8884" height="5.43324" rx="1.34409" fill="#DD2C5B" fill-opacity="0.35"/>
<rect x="83.795" y="172.879" width="6.8884" height="5.43324" rx="1.34409" fill="#DD2C5B" fill-opacity="0.35"/>
<rect x="83.795" y="193.84" width="6.8884" height="5.43324" rx="1.34409" fill="#DD2C5B" fill-opacity="0.35"/>
<rect x="111.683" y="130.958" width="6.8884" height="5.43324" rx="1.34409" fill="#DD2C5B" fill-opacity="0.35"/>
<rect x="111.683" y="151.919" width="6.8884" height="5.43324" rx="1.34409" fill="#DD2C5B" fill-opacity="0.35"/>
<rect x="111.683" y="172.879" width="6.8884" height="5.43324" rx="1.34409" fill="#DD2C5B" fill-opacity="0.35"/>
<rect x="111.683" y="193.84" width="6.8884" height="5.43324" rx="1.34409" fill="#DD2C5B" fill-opacity="0.35"/>
<rect x="139.572" y="130.958" width="6.8884" height="5.43324" rx="1.34409" fill="#DD2C5B" fill-opacity="0.35"/>
<rect x="139.572" y="151.919" width="6.8884" height="5.43324" rx="1.34409" fill="#DD2C5B" fill-opacity="0.35"/>
<rect x="139.572" y="172.879" width="6.8884" height="5.43324" rx="1.34409" fill="#DD2C5B" fill-opacity="0.35"/>
<rect x="139.572" y="193.84" width="6.8884" height="5.43324" rx="1.34409" fill="#DD2C5B" fill-opacity="0.35"/>
<rect x="167.46" y="130.958" width="6.8884" height="5.43324" rx="1.34409" fill="#DD2C5B" fill-opacity="0.35"/>
<rect x="167.46" y="151.919" width="6.8884" height="5.43324" rx="1.34409" fill="#DD2C5B" fill-opacity="0.35"/>
<rect x="167.46" y="172.879" width="6.8884" height="5.43324" rx="1.34409" fill="#DD2C5B" fill-opacity="0.35"/>
<rect x="167.46" y="193.84" width="6.8884" height="5.43324" rx="1.34409" fill="#DD2C5B" fill-opacity="0.35"/>
<rect x="195.349" y="130.958" width="6.8884" height="5.43324" rx="1.34409" fill="#DD2C5B" fill-opacity="0.35"/>
<rect x="195.349" y="151.919" width="6.8884" height="5.43324" rx="1.34409" fill="#DD2C5B" fill-opacity="0.35"/>
<rect x="195.349" y="172.879" width="6.8884" height="5.43324" rx="1.34409" fill="#DD2C5B" fill-opacity="0.35"/>
<rect x="195.349" y="193.84" width="6.8884" height="5.43324" rx="1.34409" fill="#DD2C5B" fill-opacity="0.35"/>
<rect x="223.237" y="130.958" width="6.8884" height="5.43324" rx="1.34409" fill="#DD2C5B" fill-opacity="0.35"/>
<rect x="223.237" y="151.919" width="6.8884" height="5.43324" rx="1.34409" fill="#DD2C5B" fill-opacity="0.35"/>
<rect x="223.237" y="172.879" width="6.8884" height="5.43324" rx="1.34409" fill="#DD2C5B" fill-opacity="0.35"/>
<rect x="223.237" y="193.84" width="6.8884" height="5.43324" rx="1.34409" fill="#DD2C5B" fill-opacity="0.35"/>
<rect x="251.126" y="130.958" width="6.8884" height="5.43324" rx="1.34409" fill="#DD2C5B" fill-opacity="0.35"/>
<rect x="251.126" y="151.919" width="6.8884" height="5.43324" rx="1.34409" fill="#DD2C5B" fill-opacity="0.35"/>
<rect x="251.126" y="172.879" width="6.8884" height="5.43324" rx="1.34409" fill="#DD2C5B" fill-opacity="0.35"/>
<rect x="251.126" y="193.84" width="6.8884" height="5.43324" rx="1.34409" fill="#DD2C5B" fill-opacity="0.35"/>
</svg>
